HIERARCHY
ROOT Hips
{
	OFFSET 0.00000 0.00000 0.00000
	CHANNELS 6 Xposition Yposition Zposition Zrotation Yrotation Xrotation 
	JOINT LHipJoint
	{
		OFFSET 0 0 0
		CHANNELS 3 Zrotation Yrotation Xrotation
		JOINT LeftUpLeg
		{
			OFFSET 1.40001 -1.72600 0.84541
			CHANNELS 3 Zrotation Yrotation Xrotation
			JOINT LeftLeg
			{
				OFFSET 2.34760 -6.44999 0.00000
				CHANNELS 3 Zrotation Yrotation Xrotation
				JOINT LeftFoot
				{
					OFFSET 2.50650 -6.88655 0.00000
					CHANNELS 3 Zrotation Yrotation Xrotation
					JOINT LeftToeBase
					{
						OFFSET 0.12464 -0.34243 1.95563
						CHANNELS 3 Zrotation Yrotation Xrotation
						End Site
						{
							OFFSET 0.00000 -0.00000 1.00479
						}
					}
				}
			}
		}
	}
	JOINT RHipJoint
	{
		OFFSET 0 0 0
		CHANNELS 3 Zrotation Yrotation Xrotation
		JOINT RightUpLeg
		{
			OFFSET -1.40958 -1.72600 0.84541
			CHANNELS 3 Zrotation Yrotation Xrotation
			JOINT RightLeg
			{
				OFFSET -2.37905 -6.53640 0.00000
				CHANNELS 3 Zrotation Yrotation Xrotation
				JOINT RightFoot
				{
					OFFSET -2.50470 -6.88163 0.00000
					CHANNELS 3 Zrotation Yrotation Xrotation
					JOINT RightToeBase
					{
						OFFSET -0.12236 -0.33619 1.81785
						CHANNELS 3 Zrotation Yrotation Xrotation
						End Site
						{
							OFFSET -0.00000 -0.00000 0.93746
						}
					}
				}
			}
		}
	}
	JOINT LowerBack
	{
		OFFSET 0 0 0
		CHANNELS 3 Zrotation Yrotation Xrotation
		JOINT Spine
		{
			OFFSET -0.02146 1.96915 0.26424
			CHANNELS 3 Zrotation Yrotation Xrotation
			JOINT Spine1
			{
				OFFSET 0.01522 1.99484 0.02086
				CHANNELS 3 Zrotation Yrotation Xrotation
				JOINT Neck
				{
					OFFSET 0 0 0
					CHANNELS 3 Zrotation Yrotation Xrotation
					JOINT Neck1
					{
						OFFSET -0.02954 1.71757 0.03505
						CHANNELS 3 Zrotation Yrotation Xrotation
						JOINT Head
						{
							OFFSET 0.04170 1.65781 -0.11024
							CHANNELS 3 Zrotation Yrotation Xrotation
							End Site
							{
								OFFSET 0.01600 1.81465 -0.05144
							}
						}
					}
				}
				JOINT LeftShoulder
				{
					OFFSET 0 0 0
					CHANNELS 3 Zrotation Yrotation Xrotation
					JOINT LeftArm
					{
						OFFSET 2.77679 1.60868 -0.78649
						CHANNELS 3 Zrotation Yrotation Xrotation
						JOINT LeftForeArm
						{
							OFFSET 4.62672 -0.00000 -0.00000
							CHANNELS 3 Zrotation Yrotation Xrotation
							JOINT LeftHand
							{
								OFFSET 3.11018 -0.00000 -0.00000
								CHANNELS 3 Zrotation Yrotation Xrotation
								JOINT LeftFingerBase
								{
									OFFSET 0 0 0
									CHANNELS 3 Zrotation Yrotation Xrotation
									JOINT LeftHandIndex1
									{
										OFFSET 0.74383 -0.00000 -0.00000
										CHANNELS 3 Zrotation Yrotation Xrotation
										End Site
										{
											OFFSET 0.59970 -0.00000 -0.00000
										}
									}
								}
								JOINT LThumb
								{
									OFFSET 0 0 0
									CHANNELS 3 Zrotation Yrotation Xrotation
									End Site
									{
										OFFSET 0.60885 -0.00000 0.60885
									}
								}
							}
						}
					}
				}
				JOINT RightShoulder
				{
					OFFSET 0 0 0
					CHANNELS 3 Zrotation Yrotation Xrotation
					JOINT RightArm
					{
						OFFSET -2.73247 1.63658 -0.74740
						CHANNELS 3 Zrotation Yrotation Xrotation
						JOINT RightForeArm
						{
							OFFSET -4.55919 -0.00000 -0.00000
							CHANNELS 3 Zrotation Yrotation Xrotation
							JOINT RightHand
							{
								OFFSET -3.22748 -0.00000 -0.00000
								CHANNELS 3 Zrotation Yrotation Xrotation
								JOINT RightFingerBase
								{
									OFFSET 0 0 0
									CHANNELS 3 Zrotation Yrotation Xrotation
									JOINT RightHandIndex1
									{
										OFFSET -0.70088 -0.00000 -0.00000
										CHANNELS 3 Zrotation Yrotation Xrotation
										End Site
										{
											OFFSET -0.56507 -0.00000 -0.00000
										}
									}
								}
								JOINT RThumb
								{
									OFFSET 0 0 0
									CHANNELS 3 Zrotation Yrotation Xrotation
									End Site
									{
										OFFSET -0.57370 -0.00000 0.57370
									}
								}
							}
						}
					}
				}
			}
		}
	}
}
MOTION
Frames: 15
Frame Time: .0083333
-0.3285 15.9006 -4.6567 -0.5930 -8.5371 19.3105 0.0000 0.0000 0.0000 -17.6679 -9.5470 -51.1014 1.0461 6.5043 18.2549 0.0472 0.5122 -4.3236 1.0599 -6.5456 -18.3760 0.0000 0.0000 0.0000 19.0232 -3.0400 -0.0244 -1.4167 -7.5276 21.2881 1.6362 26.7407 -6.5218 -0.3474 3.7872 -10.4787 -0.7838 3.3038 -17.5961 -0.1686 4.4763 -5.2333 1.1907 2.2033 4.1798 -0.1529 -0.5822 -5.6628 -0.7976 -0.6892 9.1869 -0.2743 -0.3826 4.0061 0.0000 -0.0000 0.0000 -93.7757 26.5727 -13.7623 6.6888 -11.4059 -0.6687 -0.0000 -0.0000 34.5940 10.5347 -16.0480 -2.9429 -7.1250 0.0000 -0.0000 -11.4887 13.9011 8.5695 0.0000 -0.0000 0.0000 80.8902 10.2196 33.3354 -39.9878 48.0627 -18.4302 0.0000 -0.0000 -15.5815 -20.2927 -31.5305 10.9442 7.1250 -0.0000 -0.0000 13.9999 -62.6355 -6.0609
-0.3192 15.9299 -4.3593 -1.3299 -8.9494 20.1955 0.0000 0.0000 0.0000 -16.4226 -9.7542 -52.7233 1.3902 7.4599 21.0852 0.0142 0.8830 -2.7614 0.9860 -6.3202 -17.7163 0.0000 0.0000 0.0000 19.1190 -2.9260 -0.6535 -1.4711 -7.6644 21.6994 2.2591 27.6623 -1.1473 -0.0516 1.4658 -4.0315 -0.1544 3.6071 -18.7547 -0.2344 4.7608 -5.4678 0.8952 2.3369 4.5892 0.0364 -0.6234 -5.8775 -0.5846 -0.7826 9.3752 -0.2438 -0.4126 4.1158 -0.0000 -0.0000 0.0000 -93.5052 26.5942 -15.8860 6.4800 -11.0604 -0.6281 -0.0000 -0.0000 36.4669 10.8236 -16.3574 -3.0820 -7.1250 0.0000 -0.0000 -11.2931 13.5717 8.4978 -0.0000 -0.0000 0.0000 81.2438 9.3661 33.0780 -40.1402 48.1528 -18.5436 0.0000 -0.0000 -15.3608 -20.1114 -31.4081 10.8035 7.1250 -0.0000 -0.0000 14.1140 -62.4693 -6.0561
-0.3181 15.9257 -4.1186 -1.4288 -8.8527 20.3709 0.0000 0.0000 0.0000 -15.3099 -10.7106 -53.3498 1.6910 8.1903 23.2937 0.0006 1.1326 -1.7055 0.5466 -4.7364 -13.1584 0.0000 0.0000 0.0000 19.0956 -2.2798 -0.3201 -1.5907 -7.9558 22.5798 2.1707 26.6717 0.1434 -0.2473 3.1997 -8.8353 -0.2388 3.5609 -18.7006 -0.3414 4.7210 -5.6127 0.8109 2.3192 4.4092 0.0034 -0.6752 -6.3339 -0.2350 -0.8838 9.7081 -0.1302 -0.4472 4.3290 0.0000 -0.0000 0.0000 -93.3264 26.4131 -18.4319 6.2636 -10.7011 -0.5872 -0.0000 -0.0000 38.4578 10.7727 -16.7189 -3.1330 -7.1250 0.0000 -0.0000 -11.3231 13.2164 8.6078 0.0000 -0.0000 0.0000 81.5974 8.6945 32.8567 -39.9922 48.0653 -18.4334 0.0000 -0.0000 -15.0871 -19.9628 -31.2304 10.6656 7.1250 -0.0000 -0.0000 14.1495 -62.2580 -6.0012
-0.2993 15.9066 -3.8656 -0.8929 -7.4966 19.9462 0.0000 0.0000 0.0000 -15.2099 -12.3449 -53.0884 1.9958 8.8574 25.3503 0.0002 0.4350 -0.6894 0.3690 -3.9018 -10.8007 0.0000 0.0000 0.0000 18.8324 -2.9617 -0.0949 -1.8060 -8.4497 24.0885 2.0967 25.4277 2.8327 -0.2022 2.8952 -7.9870 -0.4583 3.0110 -18.2354 -0.5115 4.0509 -5.6395 0.5810 1.9926 4.1414 -0.1537 -0.7106 -6.5546 0.1212 -0.9526 9.8904 0.0121 -0.4691 4.4428 0.0000 0.0000 0.0000 -93.3236 26.2090 -21.8186 6.0461 -10.3391 -0.5475 -0.0000 -0.0000 41.0150 10.4089 -16.7957 -3.0384 -7.1250 0.0000 -0.0000 -11.5624 13.1687 8.8094 0.0000 0.0000 0.0000 82.0051 7.8341 32.6683 -39.7520 47.9223 -18.2550 0.0000 -0.0000 -14.6787 -19.9924 -30.7594 10.5405 7.1250 -0.0000 -0.0000 13.7723 -61.8052 -5.6905
-0.2819 15.8749 -3.5993 0.9622 -5.1274 18.5879 0.0000 0.0000 0.0000 -16.8382 -14.7394 -51.3788 2.2802 9.4269 27.1399 -0.0009 -0.5356 0.1400 0.2254 -3.0558 -8.4341 0.0000 0.0000 0.0000 17.6946 -4.6678 0.5628 -2.1278 -9.1274 26.1946 1.8278 23.4031 4.8933 -0.2025 2.8977 -7.9940 -1.7810 1.9401 -17.1336 -1.0171 2.8941 -5.3796 0.5119 1.4263 3.8069 -0.1633 -0.8004 -6.7027 0.4942 -1.1132 9.9872 0.1293 -0.5293 4.5114 0.0000 0.0000 0.0000 -93.0789 25.9326 -25.3338 5.8494 -10.0107 -0.5127 -0.0000 -0.0000 44.5067 10.5336 -16.7711 -3.0712 -7.1250 0.0000 -0.0000 -11.4804 13.1834 8.7406 0.0000 0.0000 0.0000 82.5489 6.7812 32.2456 -39.6273 47.8475 -18.1625 0.0000 -0.0000 -14.3541 -20.0917 -30.3619 10.4751 7.1250 -0.0000 -0.0000 13.3808 -61.4402 -5.4098
-0.3053 15.8685 -3.3564 1.8546 -5.5047 18.4946 0.0000 0.0000 0.0000 -17.5548 -15.0353 -51.3412 2.5597 9.9457 28.8012 -0.0016 -0.7262 0.0639 0.1237 -2.2674 -6.2452 0.0000 0.0000 0.0000 16.6920 -3.5451 -0.2239 -2.5697 -9.9635 28.8585 1.5145 21.1572 8.3715 -0.1852 2.7717 -7.6437 -3.2140 1.8529 -17.0119 -1.3803 3.0293 -5.4408 0.9556 1.4971 3.6175 -0.1279 -0.9511 -6.8561 0.8650 -1.3608 9.9910 0.2328 -0.6304 4.5484 -0.0000 0.0000 0.0000 -92.6752 25.4258 -29.2809 5.6225 -9.6310 -0.4740 -0.0000 -0.0000 48.8298 10.6762 -16.4349 -3.0531 -7.1250 0.0000 -0.0000 -11.3898 13.5061 8.5897 -0.0000 0.0000 0.0000 83.0317 5.6715 31.7147 -39.5783 47.8180 -18.1261 0.0000 -0.0000 -14.3652 -20.1915 -30.7459 10.6479 7.1250 -0.0000 -0.0000 13.5384 -61.8422 -5.6038
-0.3140 15.8682 -3.1120 2.4940 -5.2237 18.3254 0.0000 0.0000 0.0000 -18.2764 -15.4881 -51.0150 2.8284 10.4119 30.3210 -0.0021 -1.1527 -0.4519 0.1537 -2.5265 -6.9631 0.0000 0.0000 0.0000 15.9844 -3.1796 -1.4185 -3.1105 -10.8718 31.8488 1.1336 19.0820 12.4914 -0.1384 2.3981 -6.6073 -4.1396 1.6323 -16.8535 -1.6130 2.8939 -5.4786 1.1976 1.4351 3.4613 -0.2643 -1.0855 -6.6863 1.3334 -1.5750 9.8073 0.4034 -0.7186 4.4551 -0.0000 -0.0000 0.0000 -92.3764 24.8417 -33.7889 5.3847 -9.2321 -0.4351 -0.0000 -0.0000 53.2003 10.5283 -16.1538 -2.9599 -7.1250 0.0000 -0.0000 -11.4915 13.7965 8.5977 -0.0000 -0.0000 0.0000 83.4765 4.4422 31.2186 -39.5888 47.8244 -18.1339 0.0000 -0.0000 -14.3976 -20.6572 -32.1749 11.3520 7.1250 -0.0000 -0.0000 14.0808 -63.3591 -6.3360
-0.3177 15.8715 -2.8732 2.9085 -4.8406 18.2755 0.0000 0.0000 0.0000 -18.7589 -15.9734 -50.7907 3.1025 10.8591 31.8062 -0.0007 -1.6915 -1.1096 0.1857 -2.7751 -7.6533 0.0000 0.0000 0.0000 15.4412 -2.8038 -2.8987 -3.7435 -11.8110 35.0667 0.7933 17.7849 15.9271 -0.1642 2.6107 -7.1966 -4.7528 1.4013 -16.7149 -1.7719 2.6881 -5.5175 1.3299 1.3382 3.3329 -0.3877 -1.1757 -6.6500 1.7409 -1.7246 9.6730 0.5543 -0.7774 4.4075 0.0000 0.0000 0.0000 -92.1411 24.2014 -37.5352 5.2386 -8.9865 -0.4120 -0.0000 -0.0000 56.6423 10.4682 -16.0584 -2.9258 -7.1250 0.0000 -0.0000 -11.5328 13.8956 8.6052 0.0000 0.0000 0.0000 83.9777 3.3500 30.7004 -39.4284 47.7276 -18.0151 0.0000 -0.0000 -14.3527 -21.4700 -34.2858 12.4925 7.1250 -0.0000 -0.0000 14.9398 -65.6260 -7.5180
-0.3224 15.8771 -2.6292 3.3910 -4.5394 17.9817 0.0000 0.0000 0.0000 -19.4228 -16.2678 -50.2035 3.3571 11.2519 33.1340 0.0027 -2.4101 -1.8682 0.0861 -1.8931 -5.2103 0.0000 0.0000 0.0000 14.7884 -2.4346 -4.0717 -4.4277 -12.7087 38.2877 0.6022 17.5216 18.3146 -0.2697 3.3409 -9.2292 -5.4626 1.2000 -16.4610 -1.9238 2.5305 -5.4545 1.5317 1.2637 3.2458 -0.4248 -1.2440 -6.7096 1.9846 -1.8377 9.6274 0.6362 -0.8222 4.4087 0.0000 0.0000 0.0000 -91.9258 23.5569 -40.7972 5.1699 -8.8709 -0.4013 -0.0000 -0.0000 59.8933 10.3896 -16.3271 -2.9506 -7.1250 0.0000 -0.0000 -11.5810 13.6350 8.7080 0.0000 0.0000 0.0000 84.3911 2.3220 30.2472 -38.9532 47.4373 -17.6643 0.0000 -0.0000 -14.8059 -21.8005 -35.8056 13.1705 7.1250 -0.0000 -0.0000 16.0515 -67.1747 -8.6589
-0.3257 15.8850 -2.3880 3.8144 -4.6304 17.5931 0.0000 0.0000 0.0000 -20.2011 -16.1150 -49.4303 3.5765 11.5745 34.2429 0.0138 -2.8395 -2.7162 0.0291 -1.1006 -3.0257 0.0000 0.0000 0.0000 14.0919 -1.7031 -5.1113 -5.1705 -13.5733 41.5542 0.3959 17.3724 20.6385 -0.2901 3.4635 -9.5720 -6.1707 1.1145 -16.1922 -2.0279 2.5184 -5.3628 1.8096 1.2604 3.1705 -0.6115 -1.2580 -6.5243 2.3239 -1.8672 9.4040 0.7826 -0.8296 4.2987 -0.0000 -0.0000 0.0000 -91.8678 23.0240 -42.7929 5.2045 -8.9291 -0.4066 -0.0000 -0.0000 61.7778 10.0594 -16.4380 -2.8738 -7.1250 0.0000 -0.0000 -11.7980 13.5498 8.9002 -0.0000 -0.0000 0.0000 84.6796 1.2108 29.9278 -38.4272 47.1100 -17.2779 0.0000 -0.0000 -15.4663 -21.4412 -35.5608 12.8654 7.1250 -0.0000 -0.0000 16.2323 -66.8359 -8.6333
-0.3308 15.8946 -2.1598 4.2211 -5.1919 17.4443 0.0000 0.0000 0.0000 -20.9578 -15.7136 -48.9235 3.7665 11.8430 35.1788 0.0362 -2.9153 -3.6872 0.0282 -1.0844 -2.9811 0.0000 0.0000 0.0000 13.2960 -0.4335 -6.4244 -5.9700 -14.3992 44.8611 0.0177 16.3898 23.0742 -0.2566 3.2589 -9.0004 -6.9265 1.1158 -15.9587 -2.1453 2.6204 -5.3721 2.1180 1.3188 2.9946 -0.7739 -1.2101 -6.7084 2.6457 -1.8206 9.4803 0.9230 -0.7949 4.3702 0.0000 -0.0000 0.0000 -91.8285 22.5327 -42.9805 5.2534 -9.0114 -0.4143 -0.0000 -0.0000 61.4175 9.5416 -15.6400 -2.5946 -7.1250 0.0000 -0.0000 -12.1572 14.3761 8.9659 0.0000 -0.0000 0.0000 85.0637 0.2009 29.5344 -37.8342 46.7331 -16.8448 0.0000 -0.0000 -15.6471 -21.0603 -34.6747 12.3568 7.1250 -0.0000 -0.0000 15.7999 -65.8818 -8.0533
-0.3353 15.9114 -1.9364 4.7449 -5.7095 17.3112 0.0000 0.0000 0.0000 -21.8784 -15.3005 -48.4100 3.9321 12.0694 35.9781 0.0640 -3.1845 -4.6982 0.0480 -1.4139 -3.8885 0.0000 0.0000 0.0000 12.4093 0.7439 -7.9044 -6.8223 -15.1804 48.1991 -0.5609 14.2282 25.5041 -0.2446 3.1827 -8.7879 -7.7217 1.0867 -15.6630 -2.3277 2.6782 -5.4155 2.3675 1.3594 2.7512 -0.7089 -1.1736 -7.0581 2.7409 -1.7951 9.7234 0.9457 -0.7707 4.5298 0.0000 -0.0000 0.0000 -91.6634 21.9736 -42.8598 5.2671 -9.0344 -0.4164 -0.0000 -0.0000 60.7675 9.2330 -15.2784 -2.4528 -7.1250 0.0000 -0.0000 -12.3722 14.7539 9.0301 0.0000 -0.0000 0.0000 85.5920 -0.8322 29.1435 -37.1071 46.2595 -16.3174 0.0000 -0.0000 -15.7157 -21.3603 -34.2277 12.4067 7.1250 -0.0000 -0.0000 15.0169 -65.5390 -7.5274
-0.3332 15.9353 -1.7110 4.9656 -6.1114 17.1899 0.0000 0.0000 0.0000 -22.5467 -14.7663 -47.8432 4.0678 12.2500 36.6223 0.0943 -3.5635 -5.6341 0.0487 -1.4247 -3.9183 0.0000 0.0000 0.0000 11.9023 1.8701 -9.4592 -7.7237 -15.9122 51.5611 -1.0984 11.6218 27.1240 -0.2009 2.8859 -7.9611 -8.0259 1.1081 -15.5226 -2.4597 2.7441 -5.3782 2.4044 1.3934 2.6994 -0.6440 -1.1671 -7.1830 2.7905 -1.7976 9.6545 0.9502 -0.7665 4.5302 0.0000 -0.0000 0.0000 -91.5184 21.3887 -41.0193 5.3835 -9.2301 -0.4349 -0.0000 -0.0000 58.5745 8.8195 -15.1075 -2.3157 -7.1250 0.0000 -0.0000 -12.6534 14.9489 9.1917 0.0000 -0.0000 0.0000 86.0851 -1.6877 28.9137 -36.1775 45.6348 -15.6492 0.0000 -0.0000 -15.7228 -22.1388 -33.0903 12.5233 7.1250 -0.0000 -0.0000 13.0877 -64.6534 -6.2760
-0.3258 15.9531 -1.4883 5.1216 -6.5355 17.2242 0.0000 0.0000 0.0000 -23.1531 -14.2404 -47.2999 4.1581 12.3679 37.0461 0.1318 -3.8339 -6.5867 0.0209 -0.9324 -2.5628 0.0000 0.0000 0.0000 11.4344 2.9362 -11.1390 -8.6257 -16.5607 54.7865 -1.2951 10.0048 27.2309 -0.1603 2.5794 -7.1099 -8.0967 1.1517 -15.6423 -2.6373 2.8309 -5.3717 2.2755 1.4320 2.7673 -0.5903 -1.1069 -7.1784 2.8919 -1.7329 9.6190 0.9790 -0.7278 4.5158 -0.0000 0.0000 0.0000 -91.3543 20.9563 -38.1482 5.5653 -9.5352 -0.4645 -0.0000 -0.0000 55.3925 8.3575 -14.2603 -2.0725 -7.1250 0.0000 -0.0000 -12.9930 15.8102 9.2043 -0.0000 0.0000 0.0000 86.6264 -2.3363 28.7251 -35.0918 44.8776 -14.8781 0.0000 -0.0000 -15.6154 -23.0137 -30.8784 12.2977 7.1250 -0.0000 -0.0000 10.3941 -62.6974 -4.4941
-0.3225 15.9738 -1.2758 5.3257 -7.2214 17.3800 0.0000 0.0000 0.0000 -23.7548 -13.6620 -46.8641 4.2176 12.4445 37.3232 0.1776 -3.8953 -7.5626 0.0136 -0.7543 -2.0729 0.0000 0.0000 0.0000 10.7944 4.0764 -13.2622 -9.5369 -17.1411 57.9291 -1.3132 8.9706 26.5816 -0.1560 2.5447 -7.0137 -8.2806 1.2467 -15.7319 -2.8560 2.9888 -5.5188 2.1728 1.5168 2.6444 -0.4999 -1.0186 -6.9953 3.0156 -1.6360 9.5851 1.0107 -0.6722 4.4649 0.0000 -0.0000 0.0000 -91.0842 20.4539 -36.9742 5.6089 -9.6083 -0.4718 -0.0000 -0.0000 54.1457 8.5853 -13.9165 -2.0795 -7.1250 0.0000 -0.0000 -12.8531 16.1352 9.0069 0.0000 -0.0000 0.0000 87.2533 -3.1213 28.5211 -34.0737 44.1393 -14.1644 0.0000 -0.0000 -15.5396 -23.4550 -41.3781 16.0031 7.1250 -0.0000 -0.0000 21.6747 -72.8279 -14.4949
